# xmcd
#
# Track frame offsets:
#	150
#	13962
#	25350
#	41877
#	60547
#	75316
#	93075
#	104115
#	121810
#	136875
#	152765
#	168215
#	183233
#	195533
#	209690
#	226288
#	241298
#	258515
#	273590
#	284998
#	298780
#	313933
#
# Disc length: 4399 seconds
#
# Revision: 1
# Processed by: cddbd v1.4PL0 Copyright (c) Steve Scherf et al.
# Submitted via: EasyCDDAExtractor 5.0.6
#
DISCID=49112d16
DTITLE=Various Artist - Late '80s 
DYEAR=1900
DGENRE=
TTITLE0=Better Man Clint Black 
TTITLE1=Cry, Cry, Cry Highway 101 
TTITLE2=I Told You So Randy Travis 
TTITLE3=I'll Always Come Back K.T. Oslin 
TTITLE4=I Wonder Do You Think of Me Keith Whitley 
TTITLE5=There's a Tear in My Beer Hank Williams Jr. and Hank Williams Sr
TTITLE6=Set 'Em Up Joe Vern Gosdin 
TTITLE7=Bluest Eyes in Texas Restless Heart 
TTITLE8=The Contemporary Country Collection - If You Change Your Mind Rosanne 
TTITLE8=Cash 
TTITLE9=What Am I Gonna Do about You Reba McEntire 
TTITLE10=Twinkle, Twinkle Lucky Star Merle Haggard 
TTITLE11=Fishin' in the Dark Nitty Gritty Dirt Band 
TTITLE12=Strong Enough to Bend Tanya Tucker 
TTITLE13=Ocean Front Property George Strait 
TTITLE14=Cry Myself to Sleep The Judds  
TTITLE15=Somebody Lied Ricky Van Shelton 
TTITLE16=Joe Knows how to Live Eddy Raven 
TTITLE17=The Wanderer Eddie Rabbitt 
TTITLE18=Timber, I'm Falling in Love Patty Loveless 
TTITLE19=High Cotton Alabama 
TTITLE20=A Woman in Love Ronnie Milsap 
TTITLE21=We Believe in Happy Endings Earl Thomas Conley and Emmylou Harris 
EXTD=
EXTT0=
EXTT1=
EXTT2=
EXTT3=
EXTT4=
EXTT5=
EXTT6=
EXTT7=
EXTT8=
EXTT9=
EXTT10=
EXTT11=
EXTT12=
EXTT13=
EXTT14=
EXTT15=
EXTT16=
EXTT17=
EXTT18=
EXTT19=
EXTT20=
EXTT21=
PLAYORDER=
